<svg width="74" height="32" viewBox="0 0 74 32" fill="none" xmlns="http://www.w3.org/2000/svg">
<path d="M14.7066 26.0148C14.7066 25.3571 14.5256 24.6925 14.1634 24.0214C13.8013 23.3368 13.1441 22.6991 12.1918 22.1086C11.2395 21.5179 9.86478 21.028 8.06751 20.6388C6.847 20.3702 5.774 20.075 4.84854 19.7528C3.93652 19.4305 3.17202 19.048 2.55505 18.6049C1.93808 18.1487 1.47536 17.5983 1.16687 16.954C0.858388 16.3096 0.704148 15.5445 0.704148 14.6585C0.704148 13.8934 0.865094 13.1819 1.18699 12.5242C1.5223 11.853 2.00514 11.2691 2.63553 10.7724C3.2659 10.2623 4.03041 9.86631 4.92905 9.58441C5.82765 9.30251 6.847 9.16158 7.98703 9.16158C9.60995 9.16158 10.9981 9.42332 12.1516 9.94683C13.3184 10.4704 14.2104 11.2019 14.8273 12.1416C15.4577 13.0678 15.7729 14.1484 15.7729 15.3834H14.6664C14.6664 14.484 14.4048 13.645 13.8818 12.8665C13.3721 12.0879 12.621 11.457 11.6285 10.9737C10.636 10.4905 9.42217 10.2489 7.98703 10.2489C6.5251 10.2489 5.3381 10.4704 4.42608 10.9133C3.51403 11.3563 2.84342 11.9134 2.41422 12.5846C1.99843 13.2557 1.79054 13.9336 1.79054 14.6182C1.79054 15.182 1.87102 15.7055 2.03198 16.1888C2.19291 16.6586 2.50141 17.1016 2.95742 17.5178C3.42685 17.9204 4.09747 18.3029 4.96925 18.6655C5.84107 19.0279 6.98113 19.3701 8.38941 19.6923C10.1196 20.0816 11.5279 20.5515 12.6143 21.1018C13.7007 21.6522 14.4987 22.33 15.0084 23.1354C15.5315 23.9275 15.793 24.8939 15.793 26.0349C15.793 26.8806 15.6119 27.6525 15.2498 28.3506C14.9011 29.0485 14.3914 29.6525 13.7208 30.1627C13.0636 30.6727 12.2589 31.0688 11.3066 31.3507C10.3678 31.6192 9.31487 31.7533 8.14798 31.7533C6.39098 31.7533 4.90219 31.4849 3.68169 30.948C2.47457 30.3976 1.55583 29.6727 0.925451 28.7734C0.308485 27.8605 0 26.874 0 25.8135H1.0864C1.18028 27.0619 1.58936 28.0418 2.31362 28.7532C3.05131 29.4513 3.94323 29.948 4.98937 30.2432C6.04896 30.5251 7.10184 30.6661 8.14798 30.6661C9.58312 30.6661 10.7835 30.4379 11.7492 29.9814C12.7283 29.525 13.466 28.9411 13.9622 28.2297C14.4585 27.5049 14.7066 26.7666 14.7066 26.0148ZM22.8949 0.422841V31.3507H21.8084V0.422841H22.8949ZM22.7137 18.5848L22.1303 17.4371C22.2644 16.3633 22.5595 15.3364 23.0155 14.3565C23.4715 13.3631 24.0685 12.4772 24.8062 11.6986C25.5439 10.92 26.4022 10.3026 27.3813 9.84615C28.3603 9.38977 29.4401 9.16158 30.6204 9.16158C31.7201 9.16158 32.6993 9.31594 33.5578 9.62466C34.416 9.91998 35.1402 10.3965 35.7305 11.0543C36.3205 11.6986 36.7698 12.5308 37.0784 13.5511C37.3869 14.5712 37.5412 15.8062 37.5412 17.256V31.3507H36.4547V17.256C36.4547 15.4035 36.2 13.9739 35.6902 12.9671C35.194 11.9469 34.5032 11.2355 33.6179 10.8328C32.7327 10.4301 31.7134 10.2287 30.56 10.2287C29.1919 10.2287 28.0183 10.5375 27.0392 11.1549C26.0736 11.759 25.2755 12.5175 24.6451 13.4302C24.0282 14.343 23.5587 15.2693 23.2368 16.2089C22.9283 17.1486 22.7539 17.9405 22.7137 18.5848ZM45.7294 9.56425V31.3507H44.6429V9.56425H45.7294ZM44.0796 2.75854C44.0796 2.44979 44.187 2.18804 44.4014 1.97326C44.6161 1.74507 44.8778 1.63096 45.186 1.63096C45.4946 1.63096 45.7562 1.74507 45.9709 1.97326C46.1989 2.18804 46.3129 2.44979 46.3129 2.75854C46.3129 3.06728 46.1989 3.32904 45.9709 3.54383C45.7562 3.75859 45.4946 3.86598 45.186 3.86598C44.8778 3.86598 44.6161 3.75859 44.4014 3.54383C44.187 3.32904 44.0796 3.06728 44.0796 2.75854ZM55.6074 31.3507H54.5212V6.46345C54.5212 5.06739 54.7492 3.89283 55.2051 2.93976C55.6613 1.97326 56.3118 1.24168 57.1568 0.745006C58.0151 0.248336 59.0342 0 60.2146 0C60.6305 0 61.0597 0.0268464 61.5023 0.0805404C61.9447 0.120813 62.3742 0.208065 62.7897 0.3423L62.6289 1.38934C62.2532 1.28195 61.8981 1.20812 61.5625 1.16785C61.2275 1.11415 60.7848 1.08731 60.2348 1.08731C59.2823 1.08731 58.4578 1.30208 57.7604 1.73164C57.0762 2.14777 56.5463 2.75854 56.1707 3.56395C55.7954 4.35594 55.6074 5.32244 55.6074 6.46345V31.3507ZM61.3613 9.56425V10.6717H50.7386V9.56425H61.3613ZM73.2515 9.56425V10.6717H63.172V9.56425H73.2515ZM67.1957 3.68476H68.3024V26.1357C68.3024 27.4109 68.4498 28.3773 68.7448 29.0351C69.0533 29.6794 69.4557 30.1157 69.9519 30.3438C70.4616 30.5588 71.0051 30.6661 71.5815 30.6661C71.9975 30.6661 72.3661 30.6526 72.6882 30.6257C73.01 30.5855 73.3589 30.5385 73.7345 30.4849L73.9152 31.5118C73.6202 31.6057 73.238 31.6661 72.7685 31.6929C72.2991 31.7332 71.9235 31.7533 71.642 31.7533C70.7163 31.7533 69.9185 31.5923 69.2479 31.2702C68.5905 30.9345 68.0811 30.3574 67.719 29.5386C67.3701 28.7196 67.1957 27.5854 67.1957 26.1357V3.68476Z" fill="#212121"/>
</svg>
